<svg width="20" height="21" viewBox="0 0 20 21" fill="none" xmlns="http://www.w3.org/2000/svg">
<path d="M10 2.16797C9.17591 2.16797 8.37033 2.41234 7.68512 2.87018C6.99992 3.32802 6.46587 3.97876 6.1505 4.74012C5.83514 5.50148 5.75262 6.33926 5.91339 7.14751C6.07417 7.95577 6.471 8.69819 7.05372 9.28091C7.63644 9.86363 8.37887 10.2605 9.18712 10.4212C9.99538 10.582 10.8332 10.4995 11.5945 10.1841C12.3559 9.86877 13.0066 9.33472 13.4645 8.64951C13.9223 7.96431 14.1667 7.15872 14.1667 6.33464C14.1667 5.22957 13.7277 4.16976 12.9463 3.38836C12.1649 2.60696 11.1051 2.16797 10 2.16797ZM10 8.83464C9.50555 8.83464 9.0222 8.68801 8.61107 8.41331C8.19995 8.13861 7.87952 7.74816 7.6903 7.29134C7.50108 6.83453 7.45157 6.33186 7.54804 5.84691C7.6445 5.36196 7.8826 4.9165 8.23223 4.56687C8.58186 4.21724 9.02732 3.97914 9.51227 3.88267C9.99723 3.78621 10.4999 3.83572 10.9567 4.02494C11.4135 4.21416 11.804 4.53459 12.0787 4.94571C12.3534 5.35683 12.5 5.84018 12.5 6.33464C12.5 6.99768 12.2366 7.63356 11.7678 8.1024C11.2989 8.57124 10.663 8.83464 10 8.83464ZM17.5 18.0013V17.168C17.5 15.6209 16.8854 14.1371 15.7915 13.0432C14.6975 11.9492 13.2138 11.3346 11.6667 11.3346H8.33333C6.78624 11.3346 5.30251 11.9492 4.20854 13.0432C3.11458 14.1371 2.5 15.6209 2.5 17.168V18.0013H4.16667V17.168C4.16667 16.0629 4.60565 15.0031 5.38705 14.2217C6.16846 13.4403 7.22826 13.0013 8.33333 13.0013H11.6667C12.7717 13.0013 13.8315 13.4403 14.6129 14.2217C15.3943 15.0031 15.8333 16.0629 15.8333 17.168V18.0013H17.5Z" fill="black"/>
</svg>
