<svg width="20" height="21" viewBox="0 0 20 21" fill="none" xmlns="http://www.w3.org/2000/svg">
<g clip-path="url(#clip0_180_14810)">
<path d="M11.5723 12.0137C10.9993 11.5254 10.3646 11.151 9.66797 10.8906C8.97135 10.6302 8.2487 10.5 7.5 10.5C6.92708 10.5 6.3737 10.5749 5.83984 10.7246C5.30599 10.8743 4.80794 11.0827 4.3457 11.3496C3.88346 11.6165 3.46354 11.9421 3.08594 12.3262C2.70833 12.7103 2.38281 13.1335 2.10938 13.5957C1.83594 14.0579 1.62435 14.556 1.47461 15.0898C1.32487 15.6237 1.25 16.1771 1.25 16.75H0C0 15.9688 0.113932 15.2168 0.341797 14.4941C0.569661 13.7715 0.898438 13.1042 1.32812 12.4922C1.75781 11.8802 2.26562 11.3366 2.85156 10.8613C3.4375 10.3861 4.10156 10.0117 4.84375 9.73828C4.10807 9.25651 3.53516 8.65104 3.125 7.92188C2.71484 7.19271 2.50651 6.38542 2.5 5.5C2.5 4.8099 2.63021 4.16211 2.89062 3.55664C3.15104 2.95117 3.50586 2.42057 3.95508 1.96484C4.4043 1.50911 4.9349 1.15104 5.54688 0.890625C6.15885 0.630208 6.8099 0.5 7.5 0.5C8.1901 0.5 8.83789 0.630208 9.44336 0.890625C10.0488 1.15104 10.5794 1.50586 11.0352 1.95508C11.4909 2.4043 11.849 2.9349 12.1094 3.54688C12.3698 4.15885 12.5 4.8099 12.5 5.5C12.5 5.92969 12.4479 6.34961 12.3438 6.75977C12.2396 7.16992 12.0833 7.55729 11.875 7.92188C11.6667 8.28646 11.4225 8.62175 11.1426 8.92773C10.8626 9.23372 10.5339 9.50391 10.1562 9.73828C10.5794 9.90104 10.9831 10.0996 11.3672 10.334C11.7513 10.5684 12.1126 10.832 12.4512 11.125L11.5723 12.0137ZM3.75 5.5C3.75 6.02083 3.84766 6.50586 4.04297 6.95508C4.23828 7.4043 4.50521 7.80143 4.84375 8.14648C5.18229 8.49154 5.57943 8.76172 6.03516 8.95703C6.49089 9.15234 6.97917 9.25 7.5 9.25C8.01432 9.25 8.49935 9.15234 8.95508 8.95703C9.41081 8.76172 9.80794 8.49479 10.1465 8.15625C10.485 7.81771 10.7552 7.42057 10.957 6.96484C11.1589 6.50911 11.2565 6.02083 11.25 5.5C11.25 4.98568 11.1523 4.50065 10.957 4.04492C10.7617 3.58919 10.4948 3.19206 10.1562 2.85352C9.81771 2.51497 9.41732 2.24479 8.95508 2.04297C8.49284 1.84115 8.00781 1.74349 7.5 1.75C6.97917 1.75 6.49414 1.84766 6.04492 2.04297C5.5957 2.23828 5.19857 2.50521 4.85352 2.84375C4.50846 3.18229 4.23828 3.58268 4.04297 4.04492C3.84766 4.50716 3.75 4.99219 3.75 5.5ZM16.875 8C17.3047 8 17.7083 8.08138 18.0859 8.24414C18.4635 8.4069 18.7923 8.63151 19.0723 8.91797C19.3522 9.20443 19.5768 9.53646 19.7461 9.91406C19.9154 10.2917 20 10.6953 20 11.125C20 11.5547 19.9186 11.9583 19.7559 12.3359C19.5931 12.7135 19.3685 13.0456 19.082 13.332C18.7956 13.6185 18.4635 13.8431 18.0859 14.0059C17.7083 14.1686 17.3047 14.25 16.875 14.25C16.7253 14.25 16.5788 14.2402 16.4355 14.2207L10.7031 19.9531C10.5273 20.1289 10.3255 20.2624 10.0977 20.3535C9.86979 20.4447 9.62891 20.4935 9.375 20.5C9.11458 20.5 8.87044 20.4512 8.64258 20.3535C8.41471 20.2559 8.21615 20.1224 8.04688 19.9531C7.8776 19.7839 7.74414 19.5853 7.64648 19.3574C7.54883 19.1296 7.5 18.8854 7.5 18.625C7.5 18.3776 7.54557 18.14 7.63672 17.9121C7.72786 17.6842 7.86458 17.4792 8.04688 17.2969L13.7793 11.5645C13.7598 11.4212 13.75 11.2747 13.75 11.125C13.75 10.6953 13.8314 10.2917 13.9941 9.91406C14.1569 9.53646 14.3783 9.20768 14.6582 8.92773C14.9382 8.64779 15.2702 8.42318 15.6543 8.25391C16.0384 8.08464 16.4453 8 16.875 8ZM16.875 13C17.1354 13 17.3796 12.9512 17.6074 12.8535C17.8353 12.7559 18.0339 12.6224 18.2031 12.4531C18.3724 12.2839 18.5059 12.0853 18.6035 11.8574C18.7012 11.6296 18.75 11.3854 18.75 11.125C18.75 10.8581 18.6882 10.5911 18.5645 10.3242L17.1387 11.75H16.25V10.8613L17.6758 9.43555C17.4089 9.31185 17.1419 9.25 16.875 9.25C16.6146 9.25 16.3704 9.29883 16.1426 9.39648C15.9147 9.49414 15.7161 9.6276 15.5469 9.79688C15.3776 9.96615 15.2441 10.1647 15.1465 10.3926C15.0488 10.6204 15 10.8646 15 11.125C15 11.3919 15.0618 11.6589 15.1855 11.9258L8.93555 18.1855C8.81185 18.3092 8.75 18.4557 8.75 18.625C8.75 18.7943 8.81185 18.9408 8.93555 19.0645C9.05925 19.1882 9.20573 19.25 9.375 19.25C9.54427 19.25 9.69075 19.1882 9.81445 19.0645L16.0742 12.8145C16.3411 12.9382 16.6081 13 16.875 13Z" fill="black"/>
</g>
<defs>
<clipPath id="clip0_180_14810">
<rect width="20" height="20" fill="white" transform="translate(0 0.5)"/>
</clipPath>
</defs>
</svg>
