<svg width="22" height="22" viewBox="0 0 22 22" fill="none" xmlns="http://www.w3.org/2000/svg">
<path d="M11 8C12.933 8 14.5 6.433 14.5 4.5C14.5 2.567 12.933 1 11 1C9.067 1 7.5 2.567 7.5 4.5C7.5 6.433 9.067 8 11 8Z" stroke="black" stroke-width="2" stroke-linecap="round" stroke-linejoin="round"/>
<path d="M1 19.5C1 15.0815 5.0295 11.5 10 11.5" stroke="black" stroke-width="2" stroke-linecap="round" stroke-linejoin="round"/>
<path d="M16 20.5C18.4853 20.5 20.5 18.4853 20.5 16C20.5 13.5147 18.4853 11.5 16 11.5C13.5147 11.5 11.5 13.5147 11.5 16C11.5 18.4853 13.5147 20.5 16 20.5Z" stroke="black" stroke-width="2"/>
<path d="M15.5 14.5V16.5H17.5" stroke="black" stroke-width="2" stroke-linecap="round" stroke-linejoin="round"/>
</svg>
