<svg width="20" height="21" viewBox="0 0 20 21" fill="none" xmlns="http://www.w3.org/2000/svg">
<path d="M16.7469 13.5045L13.0672 11.8553L13.0578 11.8506C12.8666 11.7688 12.6581 11.7359 12.451 11.755C12.2439 11.7741 12.0449 11.8446 11.8719 11.96C11.8515 11.9734 11.8319 11.988 11.8133 12.0037L9.91173 13.6248C8.70704 13.0397 7.46329 11.8053 6.87813 10.6162L8.50157 8.68578C8.51719 8.66625 8.53204 8.64672 8.5461 8.62562C8.65894 8.4532 8.72739 8.25556 8.74539 8.05029C8.76338 7.84502 8.73034 7.63848 8.64923 7.44906C8.64891 7.44594 8.64891 7.4428 8.64923 7.43969L6.99532 3.75297C6.88809 3.50552 6.7037 3.29939 6.46968 3.16534C6.23567 3.0313 5.96458 2.97653 5.69688 3.00922C4.63826 3.14852 3.66655 3.66841 2.96324 4.47179C2.25992 5.27517 1.87309 6.3071 1.87501 7.37484C1.87501 13.578 6.92188 18.6248 13.125 18.6248C14.1927 18.6268 15.2247 18.2399 16.0281 17.5366C16.8314 16.8333 17.3513 15.8616 17.4906 14.803C17.5233 14.5353 17.4686 14.2642 17.3345 14.0302C17.2005 13.7962 16.9943 13.6118 16.7469 13.5045ZM13.125 17.3748C10.4737 17.3719 7.93187 16.3174 6.05714 14.4427C4.1824 12.568 3.1279 10.0261 3.12501 7.37484C3.12207 6.61194 3.39692 5.87406 3.89824 5.29899C4.39956 4.72392 5.09306 4.35099 5.84923 4.24984C5.84891 4.25296 5.84891 4.2561 5.84923 4.25922L7.48985 7.93109L5.87501 9.8639C5.85858 9.88274 5.84369 9.90285 5.83048 9.92406C5.71291 10.1045 5.64394 10.3122 5.63025 10.5271C5.61657 10.742 5.65862 10.9568 5.75235 11.1506C6.46016 12.5983 7.91876 14.0459 9.38204 14.753C9.57732 14.8458 9.79335 14.8864 10.009 14.8708C10.2247 14.8552 10.4326 14.7839 10.6125 14.6639C10.6327 14.6504 10.6521 14.6355 10.6703 14.6194L12.5695 12.9998L16.2414 14.6452H16.25C16.1499 15.4022 15.7775 16.097 15.2023 16.5994C14.6272 17.1018 13.8887 17.3774 13.125 17.3748ZM10.625 5.49984C10.625 5.33408 10.6909 5.17511 10.8081 5.0579C10.9253 4.94069 11.0842 4.87484 11.25 4.87484H16.25C16.4158 4.87484 16.5747 4.94069 16.6919 5.0579C16.8092 5.17511 16.875 5.33408 16.875 5.49984C16.875 5.6656 16.8092 5.82457 16.6919 5.94178C16.5747 6.05899 16.4158 6.12484 16.25 6.12484H11.25C11.0842 6.12484 10.9253 6.05899 10.8081 5.94178C10.6909 5.82457 10.625 5.6656 10.625 5.49984ZM10.625 8.62484C10.625 8.45908 10.6909 8.30011 10.8081 8.1829C10.9253 8.06569 11.0842 7.99984 11.25 7.99984H16.25C16.4158 7.99984 16.5747 8.06569 16.6919 8.1829C16.8092 8.30011 16.875 8.45908 16.875 8.62484C16.875 8.7906 16.8092 8.94957 16.6919 9.06678C16.5747 9.18399 16.4158 9.24984 16.25 9.24984H11.25C11.0842 9.24984 10.9253 9.18399 10.8081 9.06678C10.6909 8.94957 10.625 8.7906 10.625 8.62484Z" fill="black"/>
</svg>
